<?xml version="1.0" encoding="UTF-8" standalone="no"?>
<!DOCTYPE svg PUBLIC "-//W3C//DTD SVG 1.1//EN" "http://www.w3.org/Graphics/SVG/1.1/DTD/svg11.dtd">
<svg width="100%" height="100%" viewBox="0 0 32 32" version="1.1" xmlns="http://www.w3.org/2000/svg" xmlns:xlink="http://www.w3.org/1999/xlink" xml:space="preserve" xmlns:serif="http://www.serif.com/" style="fill-rule:evenodd;clip-rule:evenodd;stroke-linejoin:round;stroke-miterlimit:2;">
    <path d="M20.731,10.94L20.388,10.809C19.871,10.61 19.324,10.399 18.757,10.22C18.483,9.38 18.287,8.48 18.297,7.536C18.316,5.81 19.016,4.07 20.793,2.293C21.183,1.902 21.817,1.902 22.207,2.293C22.598,2.683 22.598,3.317 22.207,3.707L22.062,3.855C22.062,3.855 23.642,5.435 24.365,6.157C24.458,6.251 24.511,6.378 24.511,6.511C24.511,6.644 24.458,6.771 24.365,6.865C24.271,6.958 24.144,7.011 24.011,7.011C23.878,7.011 23.751,6.958 23.658,6.865C22.946,6.153 21.407,4.614 21.407,4.614C20.953,5.208 20.668,5.766 20.5,6.293C20.5,6.293 21.738,7.531 22.365,8.158C22.458,8.251 22.511,8.378 22.511,8.511C22.511,8.644 22.458,8.771 22.365,8.865C22.271,8.958 22.144,9.011 22.011,9.011C21.878,9.011 21.751,8.958 21.657,8.865C21.156,8.363 20.298,7.505 20.298,7.505L20.297,7.558C20.287,8.462 20.542,9.354 20.916,10.313C21.02,10.582 21.134,10.855 21.253,11.136C21.082,11.073 20.908,11.008 20.731,10.94ZM10.703,20.773L10.518,20.712C9.529,20.391 8.602,20.178 7.668,20.218C7.592,20.221 7.516,20.226 7.44,20.233C7.44,20.233 8.346,21.139 8.865,21.657C9.06,21.853 9.06,22.169 8.865,22.365C8.771,22.458 8.644,22.511 8.511,22.511C8.378,22.511 8.251,22.458 8.157,22.365C7.527,21.735 6.276,20.483 6.276,20.483C5.835,20.637 5.378,20.866 4.903,21.196C4.903,21.196 6.42,22.713 7.121,23.414C7.313,23.606 7.313,23.916 7.121,24.108C7.117,24.112 7.113,24.117 7.108,24.121C6.917,24.313 6.606,24.313 6.414,24.121C5.696,23.403 4.114,21.821 4.114,21.821C3.98,21.942 3.844,22.07 3.707,22.207C3.317,22.598 2.683,22.598 2.293,22.207C1.902,21.817 1.902,21.183 2.293,20.793C4.071,19.015 5.832,18.294 7.582,18.22C8.415,18.184 9.221,18.298 9.988,18.481L10,18.484C10.737,18.661 11.437,18.903 12.09,19.139L12.217,19.185L12.292,19.212L12.529,19.299C12.766,19.386 12.997,19.47 13.221,19.55C14.025,19.836 14.754,20.068 15.463,20.17C15.463,20.17 14.809,19.516 14.385,19.093C14.292,18.999 14.239,18.872 14.239,18.739C14.239,18.606 14.292,18.479 14.385,18.385C14.581,18.19 14.897,18.19 15.093,18.385C15.7,18.992 16.876,20.168 16.876,20.168C17.451,20.069 18.038,19.827 18.651,19.358C18.651,19.358 17.101,17.808 16.385,17.092C16.19,16.897 16.19,16.581 16.385,16.385C16.479,16.292 16.606,16.239 16.739,16.239C16.872,16.239 16.999,16.292 17.093,16.385C17.816,17.108 19.395,18.688 19.395,18.688C20.054,18.003 20.402,17.369 20.557,16.764C20.557,16.764 19.275,15.482 18.635,14.843C18.44,14.647 18.44,14.331 18.635,14.135C18.831,13.94 19.147,13.94 19.343,14.135C19.824,14.617 20.625,15.418 20.625,15.418C20.57,14.976 20.451,14.531 20.29,14.064C20.979,14.231 21.993,14.565 22.591,15.034C22.611,15.166 22.626,15.299 22.637,15.431C22.773,17.041 22.277,18.637 20.707,20.207C19.139,21.776 17.523,22.294 15.891,22.218C14.919,22.172 13.955,21.913 13.044,21.607L13.039,21.605C12.646,21.473 12.262,21.332 11.893,21.196L11.533,21.065C11.258,20.965 10.989,20.869 10.724,20.78L10.703,20.773Z" style="fill:rgb(249,45,137);"/>
    <path d="M18.757,10.22C19.324,10.399 19.871,10.61 20.388,10.809L20.731,10.94C20.908,11.008 21.082,11.073 21.253,11.136L21.535,11.236C22.537,11.587 23.465,11.824 24.409,11.782L24.566,11.773C24.566,11.773 23.655,10.863 23.135,10.343C22.94,10.147 22.94,9.831 23.135,9.635C23.331,9.44 23.647,9.44 23.843,9.635C24.475,10.267 25.733,11.525 25.733,11.525C26.254,11.342 26.804,11.047 27.388,10.595C27.388,10.595 25.848,9.055 25.135,8.343C25.042,8.249 24.989,8.122 24.989,7.989C24.989,7.856 25.042,7.729 25.135,7.635C25.229,7.542 25.356,7.489 25.489,7.489C25.622,7.489 25.749,7.542 25.843,7.635C26.565,8.358 28.145,9.938 28.145,9.938L28.293,9.793C28.683,9.402 29.317,9.402 29.707,9.793C30.098,10.183 30.098,10.817 29.707,11.207C27.936,12.978 26.209,13.705 24.497,13.78C23.705,13.815 22.943,13.708 22.22,13.532C21.864,13.445 21.518,13.341 21.182,13.23C20.951,13.153 20.724,13.073 20.504,12.991C20.339,12.931 20.177,12.87 20.019,12.81L19.752,12.707L19.724,12.697C19.424,12.582 19.136,12.472 18.859,12.371C18.219,12.137 17.63,11.948 17.057,11.85C17.057,11.85 17.523,12.316 17.865,12.658C18.06,12.853 18.06,13.169 17.865,13.365C17.771,13.458 17.644,13.511 17.511,13.511C17.378,13.511 17.251,13.458 17.157,13.365C16.61,12.817 15.618,11.825 15.618,11.825C14.973,11.934 14.3,12.234 13.573,12.866C13.573,12.866 14.948,14.241 15.615,14.907C15.81,15.103 15.81,15.419 15.615,15.615C15.419,15.81 15.103,15.81 14.908,15.615C14.241,14.948 12.865,13.572 12.865,13.572C12.37,14.138 12.068,14.674 11.896,15.189C11.896,15.189 13.023,16.316 13.615,16.907C13.708,17.001 13.761,17.128 13.761,17.261C13.761,17.394 13.708,17.521 13.615,17.615C13.419,17.81 13.103,17.81 12.907,17.615C12.448,17.155 11.703,16.41 11.703,16.41L11.703,16.472C11.713,17.28 11.929,18.09 12.224,19.005L12.292,19.212L12.217,19.185L12.09,19.139C11.437,18.903 10.737,18.661 10,18.484L9.988,18.481C9.826,17.837 9.711,17.17 9.703,16.496C9.684,14.912 10.24,13.345 11.793,11.793C13.354,10.232 14.935,9.705 16.533,9.782C17.291,9.819 18.04,9.994 18.757,10.22ZM11.04,21.859C11.682,22.309 12.489,22.75 13.306,22.923C13.374,23.443 13.399,23.979 13.356,24.53C13.226,26.227 12.472,27.942 10.707,29.707C10.317,30.098 9.683,30.098 9.293,29.707C8.902,29.317 8.902,28.683 9.293,28.293C9.522,28.064 9.728,27.839 9.912,27.619C9.912,27.619 8.246,25.953 7.5,25.207C7.406,25.113 7.354,24.986 7.354,24.854C7.354,24.721 7.406,24.594 7.5,24.5C7.695,24.305 8.012,24.305 8.207,24.5C8.682,24.975 9.526,25.818 10.05,26.343C10.164,26.457 10.327,26.51 10.486,26.483C10.646,26.457 10.782,26.355 10.853,26.209C10.991,25.926 11.097,25.651 11.177,25.384C11.177,25.384 9.89,24.098 9.25,23.457C9.156,23.363 9.104,23.236 9.104,23.104C9.104,22.971 9.156,22.844 9.25,22.75C9.445,22.555 9.762,22.555 9.957,22.75C10.474,23.267 11.374,24.167 11.374,24.167C11.402,23.405 11.262,22.652 11.04,21.859Z" style="fill:rgb(61,151,255);"/>
    <path d="M11.033,21.834C10.936,21.489 10.824,21.136 10.703,20.773L10.724,20.78C10.989,20.869 11.258,20.965 11.533,21.065L11.893,21.196C12.262,21.332 12.646,21.473 13.039,21.605L13.044,21.607C13.152,22.023 13.243,22.453 13.302,22.897L13.306,22.923C12.489,22.75 11.682,22.309 11.04,21.859L11.033,21.834Z" style="fill:rgb(22,116,238);"/>
    <path d="M22.22,13.532C22.379,14.01 22.51,14.502 22.586,15L21.182,13.23C21.518,13.341 21.864,13.445 22.22,13.532Z" style="fill:rgb(199,41,115);"/>
    <path d="M22.586,15C22.588,15.011 22.589,15.023 22.591,15.034C21.993,14.565 20.979,14.231 20.29,14.064L20.289,14.063L20.504,12.991C20.724,13.073 20.951,13.153 21.182,13.23L22.586,15Z" style="fill:rgb(199,41,115);"/>
    <path d="M20.289,14.063L20.504,12.991C20.339,12.931 20.177,12.87 20.019,12.81L19.752,12.707C19.956,13.186 20.141,13.633 20.289,14.063Z" style="fill:rgb(199,41,115);"/>
</svg>
