<?xml version="1.0" encoding="UTF-8" standalone="no"?>
<!DOCTYPE svg PUBLIC "-//W3C//DTD SVG 1.1//EN" "http://www.w3.org/Graphics/SVG/1.1/DTD/svg11.dtd">
<svg width="100%" height="100%" viewBox="0 0 32 32" version="1.1" xmlns="http://www.w3.org/2000/svg" xmlns:xlink="http://www.w3.org/1999/xlink" xml:space="preserve" xmlns:serif="http://www.serif.com/" style="fill-rule:evenodd;clip-rule:evenodd;stroke-linejoin:round;stroke-miterlimit:2;">
    <g transform="matrix(0.123405,0,0,0.123405,-0.587683,-0.490155)">
        <path d="M171.435,91.552L170.861,91.429L169.151,90.72C165.613,89.254 161.896,87.738 158.109,86.403C157.025,86.022 155.925,85.65 154.808,85.296L154.046,85.054L153.869,84.275C152.858,79.818 151.994,74.476 151.591,68.213L151.572,67.907C150.069,43.483 165.255,25.6 173.633,18.593C178.104,14.854 184.769,15.448 188.508,19.918C192.247,24.389 191.653,31.054 187.183,34.793C181.759,39.33 171.679,50.792 172.652,66.605C172.824,69.405 173.109,71.991 173.469,74.368C174.728,82.692 176.898,88.46 178.291,91.924L179.523,94.992L170.904,91.447L171.435,91.552Z" style="fill:rgb(249,45,137);"/>
    </g>
    <g transform="matrix(0.123405,0,0,0.123405,-0.587683,-0.490155)">
        <path d="M170.094,88.446L171.844,89.172C173.734,89.958 175.571,90.722 177.394,91.455L177.816,91.625L177.986,92.047C178.611,93.602 179.083,94.719 179.273,95.414C180.762,100.86 177.548,106.493 172.101,107.982C166.655,109.471 161.022,106.257 159.533,100.81C158.975,98.768 156.268,93.365 154.189,84.202L153.777,82.386L155.552,82.95C156.694,83.312 157.819,83.692 158.928,84.082C162.756,85.432 166.516,86.964 170.094,88.446Z" style="fill:rgb(249,45,137);"/>
    </g>
    <g transform="matrix(0.123405,0,0,0.123405,-0.587683,-0.490155)">
        <path d="M115.708,200.762L117.035,199.351C118.538,223.775 103.352,241.651 94.975,248.66C90.504,252.399 83.839,251.805 80.099,247.336C76.36,242.866 76.954,236.2 81.423,232.46C86.848,227.923 96.928,216.461 95.955,200.649C95.721,196.847 95.278,193.44 94.725,190.413C93.13,181.693 90.611,176.125 89.52,173.357L88.426,170.578L91.259,171.522C98.328,173.879 105.239,176.688 112.125,178.84L111.913,180.234L111.922,180.237L112.148,178.847L113.08,179.135L112.819,180.97C112.866,181.153 112.912,181.337 112.958,181.523L114.041,180.122C115.181,184.492 116.233,189.865 116.806,196.298L115.513,197.711L116.807,196.318L117.034,199.332L115.708,200.762Z" style="fill:rgb(61,151,255);"/>
    </g>
    <g transform="matrix(0.123405,0,0,0.123405,-0.587683,-0.490155)">
        <path d="M89.826,173.237C89.6,172.664 89.432,172.2 89.334,171.843C87.844,166.396 91.055,160.764 96.501,159.272C101.948,157.782 107.58,160.993 109.072,166.44C109.57,168.26 111.779,172.753 113.723,180.205L114.205,182.05L112.381,181.494L111.39,181.189C104.491,179.033 97.565,176.219 90.481,173.857L90.008,173.7L89.826,173.237Z" style="fill:rgb(61,151,255);"/>
    </g>
    <g transform="matrix(0.122984,0,0,0.122984,-0.53107,-0.433875)">
        <path d="M207.379,47.888C208.69,49.195 209.427,50.969 209.429,52.821C209.43,54.672 208.695,56.448 207.386,57.757C207.237,57.906 207.087,58.056 206.938,58.205C204.214,60.928 199.799,60.928 197.076,58.205C190.441,51.571 179.463,40.592 179.463,40.592L179.107,40.097L178.93,39.53L178.938,38.935L179.138,38.359C182.123,32.85 187.202,29.853 187.262,29.818L187.847,29.595L188.456,29.573L189.04,29.747L189.55,30.109C189.55,30.109 200.681,41.208 207.379,47.888Z" style="fill:rgb(249,45,137);"/>
    </g>
    <g transform="matrix(0.123405,0,0,0.123405,-0.587683,-0.490155)">
        <path d="M152.672,112.47C151.365,113.778 149.591,114.513 147.741,114.513C145.891,114.513 144.117,113.778 142.81,112.47C136.069,105.728 124.806,94.461 124.806,94.461L124.764,94.417L124.568,94.202L124.373,93.874L124.248,93.493L124.207,93.087L124.238,92.824L124.331,92.578L124.489,92.351L124.518,92.327L124.435,92.189C127.445,86.638 132.811,83.797 132.864,83.769L133.437,83.576L134.026,83.572L134.588,83.75L135.078,84.104C135.078,84.104 146.375,95.4 153.127,102.153C154.435,103.461 155.17,105.234 155.17,107.084C155.17,108.933 154.435,110.707 153.128,112.015C152.976,112.167 152.824,112.319 152.672,112.47Z" style="fill:rgb(61,151,255);"/>
    </g>
    <g transform="matrix(0.123405,0,0,0.123405,-0.587683,-0.490155)">
        <path d="M135.001,130.142C132.278,132.865 127.862,132.865 125.139,130.142C118.362,123.364 106.998,112 106.998,112L106.642,111.505L106.465,110.938L106.473,110.343L106.673,109.767C109.681,104.216 115.048,101.375 115.101,101.347L115.674,101.154L116.263,101.15L116.825,101.328L117.315,101.682C117.315,101.682 128.68,113.046 135.457,119.824C138.18,122.547 138.18,126.963 135.457,129.686C135.305,129.838 135.153,129.99 135.001,130.142Z" style="fill:rgb(61,151,255);"/>
    </g>
    <g transform="matrix(0.123405,0,0,0.123405,-0.587683,-0.490155)">
        <path d="M117.195,138.085C118.503,139.393 119.238,141.167 119.238,143.016C119.238,144.866 118.503,146.639 117.195,147.947C117.043,148.099 116.891,148.251 116.739,148.403C115.431,149.711 113.658,150.446 111.808,150.446C109.959,150.446 108.185,149.711 106.877,148.403C100.021,141.547 88.443,129.968 88.443,129.968L88.087,129.473L87.91,128.905L87.918,128.311L88.1,127.776L88.118,127.735C91.127,122.184 96.493,119.344 96.546,119.316L97.119,119.123L97.708,119.119L98.27,119.297L98.76,119.651C98.76,119.651 110.339,131.229 117.195,138.085Z" style="fill:rgb(61,151,255);"/>
    </g>
    <g transform="matrix(0.123405,0,0,0.123405,-0.587683,-0.490155)">
        <path d="M77.065,188.078C74.345,190.798 69.935,190.802 67.211,188.086C60.903,181.799 50.786,171.713 50.786,171.713L50.508,171.362L50.324,170.96L50.237,170.527L50.255,170.08L50.377,169.649L50.594,169.264L50.895,168.94L51.268,168.692C59.118,164.732 64.921,165.913 65.133,165.959L65.641,166.143L66.077,166.465C66.077,166.465 72.658,172.984 77.477,177.757C78.795,179.063 79.538,180.84 79.543,182.695C79.547,184.55 78.812,186.331 77.5,187.643C77.355,187.788 77.21,187.933 77.065,188.078Z" style="fill:rgb(249,45,137);"/>
    </g>
    <g transform="matrix(0.123405,0,0,0.123405,-0.587683,-0.490155)">
        <path d="M59.168,205.975C57.86,207.282 56.087,208.017 54.237,208.017C52.388,208.017 50.614,207.282 49.306,205.975C42.508,199.176 31.086,187.754 31.086,187.754L30.73,187.259L30.553,186.691L30.561,186.097L30.761,185.521C33.667,180.16 37.863,176.554 37.905,176.518L38.201,176.31L38.523,176.165L38.86,176.083L39.204,176.064L39.545,176.108L39.875,176.215L40.186,176.383L40.465,176.613C40.465,176.613 52.549,188.64 59.6,195.657C60.913,196.964 61.652,198.739 61.654,200.592C61.656,202.444 60.922,204.221 59.612,205.531C59.464,205.679 59.316,205.827 59.168,205.975Z" style="fill:rgb(249,45,137);"/>
    </g>
    <g transform="matrix(0.123405,0,0,0.123405,-0.587683,-0.490155)">
        <path d="M189.131,66.15C191.854,68.873 191.854,73.289 189.131,76.012C189.028,76.114 188.926,76.217 188.824,76.319C187.492,77.651 185.677,78.388 183.793,78.361C181.909,78.334 180.116,77.546 178.823,76.176C174.714,71.825 169.529,66.335 169.529,66.335L169.323,66.073L169.167,65.783L169.064,65.469L169.017,65.139C168.669,58.61 171.37,52.078 171.37,52.077L171.6,51.673L171.916,51.341L172.304,51.095L172.745,50.949L173.209,50.915L173.661,50.994L174.08,51.18L174.447,51.466C174.447,51.466 183.321,60.339 189.131,66.15Z" style="fill:rgb(249,45,137);"/>
    </g>
    <g transform="matrix(0.123405,0,0,0.123405,-0.587683,-0.490155)">
        <path d="M210.292,60.652C213.016,57.928 217.431,57.928 220.154,60.652C226.896,67.393 238.162,78.66 238.162,78.66L238.504,79.127L238.686,79.664L238.7,80.23L238.539,80.789C238.539,80.789 235.555,87.136 230.078,89.493L229.531,89.637L228.977,89.613L228.455,89.431L227.999,89.095C227.999,89.095 216.628,77.742 209.845,70.969C208.535,69.661 207.799,67.887 207.799,66.037C207.798,64.186 208.533,62.411 209.841,61.103C209.991,60.953 210.142,60.802 210.292,60.652Z" style="fill:rgb(61,151,255);"/>
    </g>
    <g transform="matrix(0.123405,0,0,0.123405,-0.587683,-0.490155)">
        <path d="M155.894,115.05C157.22,113.725 159.023,112.989 160.897,113.008C162.771,113.027 164.559,113.8 165.857,115.153C168.735,118.152 171.804,121.35 171.804,121.35L172.054,121.675L172.225,122.038L171.443,123.144L172.239,122.08L172.264,122.161L172.269,122.179C172.474,122.81 173.401,125.896 173.134,129.267C172.917,131.997 171.932,134.878 169.401,136.969L169.103,137.17L168.78,137.309L168.443,137.385L168.101,137.398L167.762,137.35L167.435,137.239L167.128,137.068L166.853,136.836C166.853,136.836 160.251,130.117 155.469,125.25C152.787,122.52 152.806,118.138 155.513,115.431C155.64,115.304 155.767,115.177 155.894,115.05Z" style="fill:rgb(249,45,137);"/>
    </g>
    <g transform="matrix(0.123405,0,0,0.123405,-0.587683,-0.490155)">
        <path d="M120.117,150.827C121.426,149.518 123.202,148.783 125.053,148.784C126.904,148.785 128.679,149.523 129.986,150.833C136.523,157.387 147.241,168.132 147.241,168.132L147.507,168.467L147.688,168.849L147.781,169.261L147.779,169.688C147.754,169.903 147.083,175.341 141.285,180.132L140.99,180.332L140.67,180.47L140.336,180.547L139.997,180.562L139.661,180.516L139.335,180.41L139.029,180.242L138.754,180.017C138.754,180.017 126.748,168.105 119.716,161.129C118.4,159.823 117.658,158.047 117.654,156.192C117.65,154.338 118.385,152.559 119.697,151.248C119.837,151.107 119.977,150.967 120.117,150.827Z" style="fill:rgb(249,45,137);"/>
    </g>
    <g transform="matrix(0.123405,0,0,0.123405,-0.587683,-0.490155)">
        <path d="M138.379,132.565C139.688,131.256 141.464,130.521 143.315,130.522C145.166,130.523 146.941,131.261 148.248,132.571C154.864,139.206 165.794,150.164 165.794,150.164L166.06,150.5L166.242,150.881L166.334,151.293L166.332,151.72C166.307,151.935 165.635,157.373 159.837,162.163L159.542,162.363L159.222,162.501L158.888,162.578L158.549,162.593L158.213,162.547L157.887,162.441L157.581,162.273L157.306,162.047C157.306,162.047 145.085,149.921 137.976,142.868C136.66,141.562 135.918,139.786 135.915,137.932C135.911,136.077 136.646,134.298 137.957,132.987C138.098,132.846 138.239,132.705 138.379,132.565Z" style="fill:rgb(249,45,137);"/>
    </g>
    <g transform="matrix(0.123405,0,0,0.123405,-0.587683,-0.490155)">
        <path d="M80.345,190.599C81.663,189.281 83.454,188.545 85.318,188.556C87.182,188.568 88.964,189.324 90.266,190.658C94.065,194.549 98.673,199.269 98.673,199.269L99.018,199.758L99.192,200.33C99.192,200.33 100.234,207.962 97.363,214.616L97.129,215.014L96.811,215.34L96.424,215.58L95.984,215.721L95.523,215.752L95.075,215.672L94.659,215.486L94.295,215.202C94.295,215.202 85.662,206.565 79.952,200.852C77.23,198.129 77.23,193.714 79.953,190.991C80.084,190.86 80.215,190.73 80.345,190.599Z" style="fill:rgb(61,151,255);"/>
    </g>
    <g transform="matrix(0.123405,0,0,0.123405,-0.587683,-0.490155)">
        <path d="M62.511,208.433C65.233,205.711 69.646,205.709 72.37,208.429C78.977,215.027 89.879,225.916 89.879,225.916L90.212,226.366L90.397,226.882L90.425,227.429L90.29,227.973L89.304,228.631L90.247,228.064L90.181,228.189L89.235,228.763L90.121,228.291L90.041,228.406C89.628,229.014 87.329,232.272 82.374,236.365L82.08,236.565L81.76,236.703L81.427,236.78L81.088,236.795L80.752,236.75L80.427,236.644L80.121,236.477L79.846,236.252C79.846,236.252 68.809,225.351 62.122,218.745C60.801,217.44 60.055,215.662 60.049,213.805C60.043,211.948 60.778,210.166 62.091,208.853C62.231,208.713 62.371,208.573 62.511,208.433Z" style="fill:rgb(61,151,255);"/>
    </g>
    <g transform="matrix(0.123405,0,0,0.123405,-0.587683,-0.490155)">
        <path d="M192.026,78.918C194.748,76.196 199.162,76.195 201.886,78.917C207.87,84.897 217.17,94.191 217.17,94.191L217.408,94.481L217.58,94.805L217.685,95.149L217.723,95.503L217.694,95.857L217.597,96.204L217.433,96.532L217.203,96.827C216.97,97.077 213.577,100.538 203.662,100.538L203.292,100.501L202.94,100.394L202.616,100.221L202.328,99.986C202.328,99.986 196.172,93.835 191.572,89.238C190.263,87.93 189.528,86.156 189.528,84.306C189.527,82.456 190.262,80.682 191.57,79.374C191.722,79.222 191.874,79.07 192.026,78.918Z" style="fill:rgb(61,151,255);"/>
    </g>
    <g transform="matrix(0.123405,0,0,0.123405,-0.587683,-0.490155)">
        <path d="M89.757,173.948C83.177,171.784 76.455,170.051 69.481,169.657C51.427,168.64 39.343,180.185 34.499,186.228C30.854,190.775 24.202,191.508 19.655,187.862C15.108,184.217 14.375,177.565 18.021,173.018C25.287,163.955 43.596,147.046 70.671,148.573C74.693,148.799 78.647,149.395 82.549,150.236C90.442,151.936 98.115,154.637 105.675,157.301C109.674,158.711 113.642,160.11 117.593,161.345C129.047,164.924 140.399,167.045 152.357,159.788C162.553,153.599 166.305,143.821 166.92,134.092C167.526,124.493 165.252,114.851 162.347,107.744L163.765,108.334L163.804,108.346C166.794,109.59 169.933,110.898 173.08,112.103C177.335,113.73 181.857,115.277 186.606,116.412C190.346,137.434 187.025,163.451 163.313,177.842C146.555,188.014 130.657,187.054 114.627,182.498C113.516,182.183 112.405,181.85 111.293,181.502C104.189,179.282 97.061,176.35 89.757,173.948Z" style="fill:rgb(249,45,137);"/>
    </g>
    <g transform="matrix(0.123405,0,0,0.123405,-0.587683,-0.490155)">
        <path d="M114.627,182.498C115.533,186.397 116.333,190.986 116.806,196.298L116.979,198.24L115.085,197.776C112.367,197.111 109.647,196.341 106.921,195.489C103.159,194.314 99.397,192.897 95.605,191.467L94.867,191.189L94.725,190.413C93.236,182.274 90.943,176.882 89.757,173.948C97.061,176.35 104.189,179.282 111.293,181.502C112.405,181.85 113.516,182.183 114.627,182.498Z" style="fill:rgb(4,109,200);"/>
    </g>
    <g transform="matrix(0.123405,0,0,0.123405,-0.587683,-0.490155)">
        <path d="M163.765,108.334L162.133,107.655C158.62,106.2 155.298,104.851 152.016,103.695C145.573,101.425 139.823,100.095 134.261,100.301C128.964,100.496 123.346,102.123 117.087,106.543C108.063,112.917 103.932,122.908 103.039,133.951C102.362,142.329 103.626,150.704 105.675,157.301C98.115,154.637 90.442,151.936 82.549,150.236C81.747,144.464 81.491,138.36 81.985,132.25C83.231,116.842 89.393,100.243 104.903,89.289C114.48,82.525 124.018,79.541 133.482,79.192C140.502,78.932 147.165,80.144 153.372,81.944C155.305,82.506 157.195,83.124 159.037,83.773C162.871,85.124 166.636,86.658 170.219,88.143L171.97,88.869C174.05,89.734 176.066,90.572 178.07,91.372L180.63,92.374C187.332,94.939 193.399,96.737 199.35,97.071C216.998,98.067 229.224,86.87 234.33,80.503C237.979,75.952 244.625,75.22 249.176,78.869C253.727,82.518 254.458,89.163 250.811,93.715L250.095,94.609L250.086,94.601C242.619,103.548 224.758,119.661 198.161,118.162C194.183,117.937 190.325,117.301 186.606,116.412C181.857,115.277 177.335,113.73 173.08,112.103C169.933,110.898 166.794,109.59 163.804,108.346L163.765,108.334ZM248.836,93.921C249.288,94.303 249.723,94.237 249.723,94.237L248.868,93.883L248.836,93.921Z" style="fill:rgb(61,151,255);"/>
    </g>
    <g transform="matrix(0.123405,0,0,0.123405,-0.587683,-0.490155)">
        <path d="M153.372,81.944C152.58,77.991 151.926,73.424 151.592,68.217L151.47,66.325L153.313,66.773C156.97,67.66 160.507,68.754 163.907,69.951C166.862,70.993 169.781,72.134 172.615,73.285L173.35,73.583L173.469,74.368C174.663,82.264 176.678,87.86 178.07,91.372C176.066,90.572 174.05,89.734 171.97,88.869L170.219,88.143C166.636,86.658 162.871,85.124 159.037,83.773C157.195,83.124 155.305,82.506 153.372,81.944Z" style="fill:rgb(199,0,103);"/>
    </g>
</svg>
