<?xml version="1.0" encoding="UTF-8" standalone="no"?><!DOCTYPE svg PUBLIC "-//W3C//DTD SVG 1.1//EN" "http://www.w3.org/Graphics/SVG/1.1/DTD/svg11.dtd"><svg width="100%" height="100%" viewBox="0 0 267 267" version="1.1" xmlns="http://www.w3.org/2000/svg" xmlns:xlink="http://www.w3.org/1999/xlink" xml:space="preserve" xmlns:serif="http://www.serif.com/" style="fill-rule:evenodd;clip-rule:evenodd;stroke-linecap:round;"><path d="M180.408,26.693c-6.901,5.772 -19.534,20.442 -18.296,40.56c1.115,18.143 6.508,27.995 7.291,30.859" style="fill:none;fill-rule:nonzero;stroke:url(#_Linear1);stroke-width:18.33px;"/><path d="M180.408,26.693c-6.901,5.772 -19.534,20.442 -18.296,40.56c1.115,18.143 6.508,27.995 7.291,30.859" style="fill:none;fill-rule:nonzero;stroke:url(#_Radial2);stroke-width:18.33px;"/><g style="filter:url(#_Effect3);"><path d="M182.383,22.822c1.058,-0.885 2.636,-0.745 3.521,0.314c0.886,1.058 0.745,2.636 -0.313,3.521c-6.572,5.496 -20.462,21.288 -19.284,40.442c1.098,17.851 6.436,27.535 7.207,30.353c0.364,1.331 -0.421,2.707 -1.752,3.071c-1.331,0.364 -2.707,-0.421 -3.071,-1.752c-0.796,-2.91 -6.241,-12.929 -7.375,-31.365c-1.296,-21.08 13.835,-38.535 21.067,-44.584Z" style="fill:url(#_Linear4);"/></g><g style="filter:url(#_Effect5);"><path d="M182.383,22.822c1.058,-0.885 2.636,-0.745 3.521,0.314c0.886,1.058 0.745,2.636 -0.313,3.521c-6.572,5.496 -20.462,21.288 -19.284,40.442c1.098,17.851 6.436,27.535 7.207,30.353c0.364,1.331 -0.421,2.707 -1.752,3.071c-1.331,0.364 -2.707,-0.421 -3.071,-1.752c-0.796,-2.91 -6.241,-12.929 -7.375,-31.365c-1.296,-21.081 13.835,-38.535 21.067,-44.584Z" style="fill:url(#_Linear6);"/></g><path d="M88.199,240.56c6.901,-5.773 19.534,-20.442 18.296,-40.56c-1.116,-18.143 -6.508,-27.995 -7.292,-30.859" style="fill:none;fill-rule:nonzero;stroke:#3ab3ff;stroke-width:18.33px;"/><path d="M88.199,240.56c6.901,-5.773 19.534,-20.442 18.296,-40.56c-1.116,-18.143 -6.508,-27.995 -7.292,-30.859" style="fill:none;fill-rule:nonzero;stroke:url(#_Radial7);stroke-width:18.33px;"/><g style="filter:url(#_Effect8);"><path d="M91.555,242.478c-1.058,0.885 -2.636,0.744 -3.522,-0.314c-0.885,-1.058 -0.745,-2.636 0.314,-3.522c6.551,-5.48 18.579,-19.39 17.404,-38.489c-1.097,-17.85 -6.437,-27.535 -7.207,-30.353c-0.364,-1.331 0.421,-2.707 1.751,-3.071c1.331,-0.364 2.707,0.421 3.071,1.752c0.796,2.911 6.242,12.929 7.376,31.366c1.3,21.136 -11.937,36.566 -19.187,42.631Z" style="fill:url(#_Radial9);"/></g><path d="M180.797,39.258c2.745,-5.066 7.421,-7.813 7.421,-7.813l23.207,23.142c0.488,0.488 0.488,1.279 0,1.768l-5.882,5.881c-0.488,0.489 -1.28,0.488 -1.768,0l-22.978,-22.978Z" style="fill:url(#_Linear10);fill-rule:nonzero;"/><path d="M180.797,39.258c2.745,-5.066 7.421,-7.813 7.421,-7.813l23.207,23.142c0.488,0.488 0.488,1.279 0,1.768l-5.882,5.881c-0.488,0.489 -1.28,0.488 -1.768,0l-22.978,-22.978Z" style="fill:url(#_Radial11);fill-rule:nonzero;"/><path d="M126.094,93.088c2.747,-5.066 7.65,-7.65 7.65,-7.65l23.64,23.64c0.489,0.489 0.489,1.28 0,1.768l-5.882,5.882c-0.488,0.488 -1.279,0.488 -1.767,-0l-23.641,-23.641Z" style="fill:#53b6ff;fill-rule:nonzero;"/><path d="M126.094,93.088c2.747,-5.066 7.65,-7.65 7.65,-7.65l23.64,23.64c0.489,0.489 0.489,1.28 0,1.768l-5.882,5.882c-0.488,0.488 -1.279,0.488 -1.767,-0l-23.641,-23.641Z" style="fill:url(#_Linear12);fill-rule:nonzero;"/><path d="M126.094,93.088c2.747,-5.066 7.65,-7.65 7.65,-7.65l23.64,23.64c0.489,0.489 0.489,1.28 0,1.768l-5.882,5.882c-0.488,0.488 -1.279,0.488 -1.767,-0l-23.641,-23.641Z" style="fill:url(#_Linear13);fill-rule:nonzero;"/><path d="M108.332,110.666c2.745,-5.066 7.649,-7.65 7.649,-7.65l23.64,23.641c0.488,0.487 0.488,1.279 -0,1.767l-5.882,5.882c-0.488,0.488 -1.279,0.488 -1.767,-0l-23.64,-23.64Z" style="fill:url(#_Linear14);fill-rule:nonzero;"/><path d="M89.777,128.634c2.746,-5.065 7.649,-7.649 7.649,-7.649l23.641,23.64c0.487,0.488 0.487,1.28 -0,1.768l-5.883,5.882c-0.487,0.487 -1.279,0.487 -1.767,0l-23.64,-23.641Z" style="fill:url(#_Linear15);fill-rule:nonzero;"/><path d="M52.118,170.377c7.292,-3.679 12.631,-2.571 12.631,-2.571l16.927,16.767c0.492,0.486 0.494,1.281 0.004,1.771l-5.879,5.879c-0.487,0.488 -1.278,0.489 -1.766,0.001l-21.917,-21.847Z" style="fill:url(#_Linear16);fill-rule:nonzero;"/><path d="M32.42,186.42c2.746,-5.066 6.714,-8.47 6.714,-8.47l24.576,24.46c0.488,0.488 0.488,1.28 -0,1.768l-5.882,5.882c-0.488,0.488 -1.28,0.488 -1.768,0l-23.64,-23.64Z" style="fill:url(#_Linear17);fill-rule:nonzero;"/><path d="M170.901,65.039c-0.326,-6.119 2.212,-12.239 2.212,-12.239l19.86,19.861c0.488,0.489 0.488,1.28 -0,1.768l-5.882,5.882c-0.489,0.488 -1.28,0.488 -1.768,-0l-14.422,-15.272Z" style="fill:url(#_Linear18);fill-rule:nonzero;"/><path d="M236.828,79.994c0,-0 -2.626,5.67 -7.496,7.766l-23.793,-23.757c-0.488,-0.488 -0.488,-1.279 0,-1.767l5.882,-5.882c0.488,-0.488 1.279,-0.488 1.767,-0l23.64,23.64Z" style="fill:url(#_Linear19);fill-rule:nonzero;"/><path d="M236.828,79.994c0,-0 -2.626,5.67 -7.496,7.766l-23.793,-23.757c-0.488,-0.488 -0.488,-1.279 0,-1.767l5.882,-5.882c0.488,-0.488 1.279,-0.488 1.767,-0l23.64,23.64Z" style="fill:url(#_Linear20);fill-rule:nonzero;"/><path d="M236.828,79.994c0,-0 -2.626,5.67 -7.496,7.766l-23.793,-23.757c-0.488,-0.488 -0.488,-1.279 0,-1.767l5.882,-5.882c0.488,-0.488 1.279,-0.488 1.767,-0l23.64,23.64Z" style="fill:url(#_Linear21);fill-rule:nonzero;"/><path d="M170.443,122.657c0,-0 2.996,8.528 -2.244,12.857l-16.719,-17.017c-0.481,-0.489 -0.477,-1.275 0.008,-1.76l5.871,-5.871c0.496,-0.495 1.301,-0.487 1.786,0.018l11.298,11.773Z" style="fill:url(#_Linear22);fill-rule:nonzero;"/><path d="M170.443,122.657c0,-0 2.996,8.528 -2.244,12.857l-16.719,-17.017c-0.481,-0.489 -0.477,-1.275 0.008,-1.76l5.871,-5.871c0.496,-0.495 1.301,-0.487 1.786,0.018l11.298,11.773Z" style="fill:url(#_Linear23);fill-rule:nonzero;"/><path d="M145.905,169.465c0,0 -0.582,4.883 -5.822,9.212l-24.933,-24.736c-0.493,-0.488 -0.496,-1.284 -0.005,-1.773l5.877,-5.878c0.488,-0.488 1.278,-0.488 1.766,-0.001l23.117,23.176Z" style="fill:url(#_Linear24);fill-rule:nonzero;"/><path d="M145.905,169.465c0,0 -0.582,4.883 -5.822,9.212l-24.933,-24.736c-0.493,-0.488 -0.496,-1.284 -0.005,-1.773l5.877,-5.878c0.488,-0.488 1.278,-0.488 1.766,-0.001l23.117,23.176Z" style="fill:url(#_Linear25);fill-rule:nonzero;"/><path d="M164.458,151.497c0,-0 -0.583,4.882 -5.823,9.211l-24.93,-24.736c-0.493,-0.487 -0.496,-1.283 -0.006,-1.774l5.878,-5.877c0.487,-0.488 1.278,-0.488 1.766,-0.001l23.115,23.177Z" style="fill:url(#_Linear26);fill-rule:nonzero;"/><path d="M164.458,151.497c0,-0 -0.583,4.882 -5.823,9.211l-24.93,-24.736c-0.493,-0.487 -0.496,-1.283 -0.006,-1.774l5.878,-5.877c0.487,-0.488 1.278,-0.488 1.766,-0.001l23.115,23.177Z" style="fill:url(#_Linear27);fill-rule:nonzero;"/><path d="M97.323,200.587c0,-0 0.976,7.096 -1.693,13.281l-19.85,-19.859c-0.487,-0.488 -0.486,-1.278 0.002,-1.766l5.883,-5.882c0.488,-0.488 1.28,-0.488 1.768,-0l13.89,14.226Z" style="fill:url(#_Linear28);fill-rule:nonzero;"/><path d="M97.323,200.587c0,-0 0.976,7.096 -1.693,13.281l-19.85,-19.859c-0.487,-0.488 -0.486,-1.278 0.002,-1.766l5.883,-5.882c0.488,-0.488 1.28,-0.488 1.768,-0l13.89,14.226Z" style="fill:url(#_Linear29);fill-rule:nonzero;"/><path d="M88.546,227.251c-0,-0 -2.134,3.331 -7.374,7.659l-23.378,-23.092c-0.494,-0.487 -0.497,-1.283 -0.006,-1.773l5.877,-5.877c0.488,-0.488 1.278,-0.489 1.767,-0.001l23.114,23.084Z" style="fill:url(#_Linear30);fill-rule:nonzero;"/><path d="M88.546,227.251c-0,-0 -2.134,3.331 -7.374,7.659l-23.378,-23.092c-0.494,-0.487 -0.497,-1.283 -0.006,-1.773l5.877,-5.877c0.488,-0.488 1.278,-0.489 1.767,-0.001l23.114,23.084Z" style="fill:url(#_Linear31);fill-rule:nonzero;"/><path d="M215.836,95.526c-0,-0 -2.976,3.125 -12.174,3.125l-16.594,-16.581c-0.489,-0.488 -0.489,-1.28 -0,-1.768l5.881,-5.882c0.488,-0.488 1.279,-0.488 1.768,-0l21.119,21.106Z" style="fill:url(#_Linear32);fill-rule:nonzero;"/><path d="M215.836,95.526c-0,-0 -2.976,3.125 -12.174,3.125l-16.594,-16.581c-0.489,-0.488 -0.489,-1.28 -0,-1.768l5.881,-5.882c0.488,-0.488 1.279,-0.488 1.768,-0l21.119,21.106Z" style="fill:url(#_Linear33);fill-rule:nonzero;"/><path d="M215.836,95.526c-0,-0 -2.976,3.125 -12.174,3.125l-16.594,-16.581c-0.489,-0.488 -0.489,-1.28 -0,-1.768l5.881,-5.882c0.488,-0.488 1.279,-0.488 1.768,-0l21.119,21.106Z" style="fill:url(#_Linear34);fill-rule:nonzero;"/><g><path d="M26.26,179.623c6.055,-7.553 21.252,-21.78 43.816,-20.508c31.177,1.758 57.883,27.832 87.759,9.7c27.14,-16.471 20.943,-51.497 12.74,-68.555" style="fill:none;fill-rule:nonzero;stroke:url(#_Linear35);stroke-width:18.33px;"/><path d="M26.26,179.623c6.055,-7.553 21.252,-21.78 43.816,-20.508c31.177,1.758 57.883,27.832 87.759,9.7c27.14,-16.471 20.943,-51.497 12.74,-68.555" style="fill:none;fill-rule:nonzero;stroke:url(#_Radial36);stroke-width:18.33px;"/></g><g><g style="filter:url(#_Effect37);"><path d="M31.205,181.814c-0.935,1.166 -2.641,1.354 -3.807,0.419c-1.166,-0.935 -1.354,-2.641 -0.419,-3.807c6.365,-7.94 22.361,-22.855 46.081,-21.518c15.813,0.891 30.509,7.892 45.023,12.428c13.576,4.243 27.005,6.263 41.179,-2.339c25.732,-15.617 19.482,-48.893 11.704,-65.066c-0.648,-1.347 -0.08,-2.966 1.267,-3.614c1.347,-0.648 2.967,-0.08 3.614,1.267c8.63,17.943 14.775,54.717 -13.775,72.044c-15.703,9.53 -30.564,7.579 -45.605,2.878c-14.102,-4.408 -28.348,-11.324 -43.712,-12.19c-21.406,-1.207 -35.805,12.333 -41.55,19.498Z" style="fill:url(#_Radial38);"/></g></g><g><path d="M249.723,92.843c3.166,-3.951 2.531,-9.719 -1.419,-12.886c-3.95,-3.167 -9.719,-2.532 -12.886,1.418c-5.274,6.578 -17.916,18.117 -36.146,17.089c-6.084,-0.342 -12.289,-2.165 -19.14,-4.787c-2.87,-1.098 -5.717,-2.281 -8.697,-3.52l-1.75,-0.726c-3.561,-1.475 -7.302,-3 -11.112,-4.343c-7.6,-2.677 -16.017,-4.836 -25.04,-4.502c-9.215,0.34 -18.499,3.256 -27.825,9.842c-15.134,10.688 -21.117,26.9 -22.333,41.934c-0.541,6.696 -0.166,13.383 0.847,19.62c3.942,0.911 7.737,2.039 11.368,3.227c3.038,0.995 6.046,2.063 8.941,3.1c-2.205,-6.834 -3.595,-15.65 -2.882,-24.47c0.927,-11.467 5.263,-21.817 14.634,-28.435c6.531,-4.612 12.399,-6.293 17.927,-6.497c5.722,-0.212 11.641,1.137 18.27,3.473c3.304,1.164 6.65,2.522 10.187,3.987l1.672,0.695c2.978,1.239 6.105,2.538 9.24,3.738c7.459,2.854 15.754,5.467 24.66,5.969c26.896,1.516 44.648,-15.401 51.483,-23.927Z" style="fill:url(#_Linear39);fill-rule:nonzero;"/></g><g><g style="filter:url(#_Effect40);"><path d="M242.261,83.874c0.863,-1.076 2.438,-1.249 3.515,-0.386c1.076,0.863 1.249,2.438 0.386,3.514c-6.341,7.909 -22.276,22.773 -45.907,21.44c-15.22,-0.858 -29.472,-8.93 -43.919,-14.021c-13.499,-4.756 -27.213,-6.758 -42.257,3.866c-17.611,12.437 -19.648,34.968 -16.331,52.237c0.261,1.355 -0.628,2.667 -1.983,2.927c-1.355,0.26 -2.666,-0.628 -2.927,-1.983c-3.645,-18.975 -0.993,-43.6 18.357,-57.265c16.669,-11.772 31.845,-9.768 46.803,-4.498c14.009,4.937 27.78,12.913 42.539,13.745c21.495,1.212 35.956,-12.381 41.724,-19.576Z" style="fill:url(#_Linear41);"/></g><g style="filter:url(#_Effect42);"><path d="M242.261,83.874c0.863,-1.076 2.438,-1.249 3.515,-0.386c1.076,0.863 1.249,2.438 0.386,3.514c-6.341,7.909 -22.276,22.772 -45.907,21.44c-15.22,-0.858 -29.472,-8.93 -43.919,-14.021c-13.499,-4.756 -27.213,-6.758 -42.257,3.866c-17.611,12.437 -19.648,34.968 -16.331,52.237c0.261,1.355 -0.628,2.667 -1.983,2.927c-1.355,0.26 -2.666,-0.628 -2.927,-1.983c-3.645,-18.975 -0.993,-43.6 18.357,-57.265c16.669,-11.772 31.845,-9.768 46.803,-4.498c14.009,4.937 27.78,12.913 42.539,13.745c21.495,1.212 35.956,-12.381 41.724,-19.576Z" style="fill:url(#_Linear43);"/></g></g><defs><linearGradient id="_Linear1" x1="0" y1="0" x2="1" y2="0" gradientUnits="userSpaceOnUse" gradientTransform="matrix(-9.19,72.5908,-72.5908,-9.19,180.408,25.5208)"><stop offset="0" style="stop-color:#e32c5b;stop-opacity:1"/><stop offset="1" style="stop-color:#d31f63;stop-opacity:1"/></linearGradient><radialGradient id="_Radial2" cx="0" cy="0" r="1" gradientUnits="userSpaceOnUse" gradientTransform="matrix(-19.0105,-33.2682,11.676,-6.67202,166.148,98.1117)"><stop offset="0" style="stop-color:#953853;stop-opacity:1"/><stop offset="0.23" style="stop-color:#953853;stop-opacity:1"/><stop offset="1" style="stop-color:#da2562;stop-opacity:0"/></radialGradient><filter id="_Effect3" filterUnits="userSpaceOnUse" x="153.738" y="14.74" width="40.2482" height="93.3722"><feGaussianBlur in="SourceGraphic" stdDeviation="1.25"/></filter><linearGradient id="_Linear4" x1="0" y1="0" x2="1" y2="0" gradientUnits="userSpaceOnUse" gradientTransform="matrix(-3.30667,-35.9375,35.9375,-3.30667,163.725,89.5833)"><stop offset="0" style="stop-color:#fd577a;stop-opacity:1"/><stop offset="1" style="stop-color:#fd577a;stop-opacity:0"/></linearGradient><filter id="_Effect5" filterUnits="userSpaceOnUse" x="153.738" y="14.74" width="40.2482" height="93.3722"><feGaussianBlur in="SourceGraphic" stdDeviation="1.25"/></filter><linearGradient id="_Linear6" x1="0" y1="0" x2="1" y2="0" gradientUnits="userSpaceOnUse" gradientTransform="matrix(-11.4583,11.1979,-11.1979,-11.4583,185.939,22.6562)"><stop offset="0" style="stop-color:#fd577a;stop-opacity:1"/><stop offset="0.29" style="stop-color:#fd577a;stop-opacity:1"/><stop offset="1" style="stop-color:#fd577a;stop-opacity:0"/></linearGradient><radialGradient id="_Radial7" cx="0" cy="0" r="1" gradientUnits="userSpaceOnUse" gradientTransform="matrix(26.8636,16.7151,-6.74012,10.8323,99.4275,173.971)"><stop offset="0" style="stop-color:#2248c9;stop-opacity:1"/><stop offset="0.2" style="stop-color:#2248c9;stop-opacity:1"/><stop offset="1" style="stop-color:#3196ff;stop-opacity:0"/></radialGradient><filter id="_Effect8" filterUnits="userSpaceOnUse" x="81.2012" y="160.39" width="35.8798" height="88.9192"><feGaussianBlur in="SourceGraphic" stdDeviation="1.04167"/></filter><radialGradient id="_Radial9" cx="0" cy="0" r="1" gradientUnits="userSpaceOnUse" gradientTransform="matrix(-42.9817,-3.0214,2.65676,-37.7943,114.71,204.85)"><stop offset="0" style="stop-color:#63cbff;stop-opacity:1"/><stop offset="0.15" style="stop-color:#63cbff;stop-opacity:1"/><stop offset="1" style="stop-color:#63cbff;stop-opacity:0"/></radialGradient><linearGradient id="_Linear10" x1="0" y1="0" x2="1" y2="0" gradientUnits="userSpaceOnUse" gradientTransform="matrix(-8.59417,8.59375,-8.59375,-8.59417,203.388,45.5729)"><stop offset="0" style="stop-color:#f72d60;stop-opacity:1"/><stop offset="0.34" style="stop-color:#f1476d;stop-opacity:1"/><stop offset="0.91" style="stop-color:#a11c56;stop-opacity:1"/><stop offset="1" style="stop-color:#a11c56;stop-opacity:1"/></linearGradient><radialGradient id="_Radial11" cx="0" cy="0" r="1" gradientUnits="userSpaceOnUse" gradientTransform="matrix(-6.05471,5.46874,-0.783372,-0.86731,188.413,31.4453)"><stop offset="0" style="stop-color:#f84770;stop-opacity:1"/><stop offset="1" style="stop-color:#f84770;stop-opacity:0"/></radialGradient><linearGradient id="_Linear12" x1="0" y1="0" x2="1" y2="0" gradientUnits="userSpaceOnUse" gradientTransform="matrix(5.99,-5.99,5.99,5.99,140.106,108.333)"><stop offset="0" style="stop-color:#4c6de8;stop-opacity:1"/><stop offset="0.05" style="stop-color:#4c6de8;stop-opacity:1"/><stop offset="1" style="stop-color:#4c6de8;stop-opacity:0"/></linearGradient><linearGradient id="_Linear13" x1="0" y1="0" x2="1" y2="0" gradientUnits="userSpaceOnUse" gradientTransform="matrix(-3.90667,5.33833,-5.33833,-3.90667,154.299,102.083)"><stop offset="0" style="stop-color:#1c5fe3;stop-opacity:1"/><stop offset="0.14" style="stop-color:#1c5fe3;stop-opacity:1"/><stop offset="1" style="stop-color:#1c5fe3;stop-opacity:0"/></linearGradient><linearGradient id="_Linear14" x1="0" y1="0" x2="1" y2="0" gradientUnits="userSpaceOnUse" gradientTransform="matrix(-8.59417,8.36917,-8.36917,-8.59417,133.596,118.844)"><stop offset="0" style="stop-color:#34a9ff;stop-opacity:1"/><stop offset="0.37" style="stop-color:#60ceff;stop-opacity:1"/><stop offset="1" style="stop-color:#4172e9;stop-opacity:1"/></linearGradient><linearGradient id="_Linear15" x1="0" y1="0" x2="1" y2="0" gradientUnits="userSpaceOnUse" gradientTransform="matrix(-8.59333,8.36917,-8.36917,-8.59333,115.041,136.812)"><stop offset="0" style="stop-color:#34a9ff;stop-opacity:1"/><stop offset="0.37" style="stop-color:#60ceff;stop-opacity:1"/><stop offset="1" style="stop-color:#4172e9;stop-opacity:1"/></linearGradient><linearGradient id="_Linear16" x1="0" y1="0" x2="1" y2="0" gradientUnits="userSpaceOnUse" gradientTransform="matrix(-9.09825,9.73667,-9.73667,-9.09825,77.0853,177.864)"><stop offset="0" style="stop-color:#c92a66;stop-opacity:1"/><stop offset="0.35" style="stop-color:#ff5590;stop-opacity:1"/><stop offset="0.85" style="stop-color:#d23d7e;stop-opacity:1"/><stop offset="1" style="stop-color:#d23d7e;stop-opacity:1"/></linearGradient><linearGradient id="_Linear17" x1="0" y1="0" x2="1" y2="0" gradientUnits="userSpaceOnUse" gradientTransform="matrix(-8.89433,9.05417,-9.05417,-8.89433,57.1421,195.162)"><stop offset="0" style="stop-color:#fd3377;stop-opacity:1"/><stop offset="0.36" style="stop-color:#ff5590;stop-opacity:1"/><stop offset="0.86" style="stop-color:#d23d7e;stop-opacity:1"/><stop offset="1" style="stop-color:#d23d7e;stop-opacity:1"/></linearGradient><linearGradient id="_Linear18" x1="0" y1="0" x2="1" y2="0" gradientUnits="userSpaceOnUse" gradientTransform="matrix(-7.665,7.08883,-7.08883,-7.665,186.385,65.4406)"><stop offset="0" style="stop-color:#f72d60;stop-opacity:1"/><stop offset="0.34" style="stop-color:#f1476d;stop-opacity:1"/><stop offset="0.91" style="stop-color:#a11c56;stop-opacity:1"/><stop offset="1" style="stop-color:#a11c56;stop-opacity:1"/></linearGradient><linearGradient id="_Linear19" x1="0" y1="0" x2="1" y2="0" gradientUnits="userSpaceOnUse" gradientTransform="matrix(-8.73083,8.777,-8.777,-8.73083,228.246,70.3413)"><stop offset="0" style="stop-color:#53f1ff;stop-opacity:1"/><stop offset="0.34" style="stop-color:#67f2ff;stop-opacity:1"/><stop offset="0.91" style="stop-color:#42afff;stop-opacity:1"/><stop offset="1" style="stop-color:#42afff;stop-opacity:1"/></linearGradient><linearGradient id="_Linear20" x1="0" y1="0" x2="1" y2="0" gradientUnits="userSpaceOnUse" gradientTransform="matrix(-2.235,1.99742,-1.99742,-2.235,221.844,77.0505)"><stop offset="0" style="stop-color:#4bbfff;stop-opacity:0"/><stop offset="1" style="stop-color:#6491ce;stop-opacity:1"/></linearGradient><linearGradient id="_Linear21" x1="0" y1="0" x2="1" y2="0" gradientUnits="userSpaceOnUse" gradientTransform="matrix(3.97167,3.71092,-3.71092,3.97167,209.833,53.906)"><stop offset="0" style="stop-color:#713490;stop-opacity:1"/><stop offset="0.43" style="stop-color:#713490;stop-opacity:1"/><stop offset="1" style="stop-color:#4fc5ff;stop-opacity:0"/></linearGradient><linearGradient id="_Linear22" x1="0" y1="0" x2="1" y2="0" gradientUnits="userSpaceOnUse" gradientTransform="matrix(-7.8775,6.96583,-6.96583,-7.8775,168.101,121.159)"><stop offset="0" style="stop-color:#eb2a67;stop-opacity:1"/><stop offset="0.35" style="stop-color:#f73e76;stop-opacity:1"/><stop offset="0.85" style="stop-color:#aa2760;stop-opacity:1"/><stop offset="1" style="stop-color:#aa2760;stop-opacity:1"/></linearGradient><linearGradient id="_Linear23" x1="0" y1="0" x2="1" y2="0" gradientUnits="userSpaceOnUse" gradientTransform="matrix(1.5625,1.5625,-1.5625,1.5625,154.429,113.021)"><stop offset="0" style="stop-color:#80215c;stop-opacity:1"/><stop offset="1" style="stop-color:#80215c;stop-opacity:0"/></linearGradient><linearGradient id="_Linear24" x1="0" y1="0" x2="1" y2="0" gradientUnits="userSpaceOnUse" gradientTransform="matrix(-10.0258,9.76583,-9.76583,-10.0258,139.585,160.286)"><stop offset="0" style="stop-color:#eb2a67;stop-opacity:1"/><stop offset="0.35" style="stop-color:#f73e76;stop-opacity:1"/><stop offset="0.85" style="stop-color:#8f1c55;stop-opacity:1"/><stop offset="1" style="stop-color:#8f1c55;stop-opacity:1"/></linearGradient><linearGradient id="_Linear25" x1="0" y1="0" x2="1" y2="0" gradientUnits="userSpaceOnUse" gradientTransform="matrix(1.4325,1.4325,-1.4325,1.4325,118.687,148.307)"><stop offset="0" style="stop-color:#80215c;stop-opacity:1"/><stop offset="1" style="stop-color:#80215c;stop-opacity:0"/></linearGradient><linearGradient id="_Linear26" x1="0" y1="0" x2="1" y2="0" gradientUnits="userSpaceOnUse" gradientTransform="matrix(-10.0258,9.76583,-9.76583,-10.0258,158.14,142.317)"><stop offset="0" style="stop-color:#eb2a67;stop-opacity:1"/><stop offset="0.35" style="stop-color:#f73e76;stop-opacity:1"/><stop offset="0.85" style="stop-color:#aa2760;stop-opacity:1"/><stop offset="1" style="stop-color:#aa2760;stop-opacity:1"/></linearGradient><linearGradient id="_Linear27" x1="0" y1="0" x2="1" y2="0" gradientUnits="userSpaceOnUse" gradientTransform="matrix(1.4325,1.4325,-1.4325,1.4325,137.242,130.338)"><stop offset="0" style="stop-color:#80215c;stop-opacity:1"/><stop offset="1" style="stop-color:#80215c;stop-opacity:0"/></linearGradient><linearGradient id="_Linear28" x1="0" y1="0" x2="1" y2="0" gradientUnits="userSpaceOnUse" gradientTransform="matrix(-8.42875,7.59417,-7.59417,-8.42875,91.2642,195.731)"><stop offset="0" style="stop-color:#2ba2ff;stop-opacity:1"/><stop offset="0.4" style="stop-color:#51baff;stop-opacity:1"/><stop offset="1" style="stop-color:#447aff;stop-opacity:1"/></linearGradient><linearGradient id="_Linear29" x1="0" y1="0" x2="1" y2="0" gradientUnits="userSpaceOnUse" gradientTransform="matrix(2.66933,2.69833,-2.69833,2.66933,79.1687,186.039)"><stop offset="0" style="stop-color:#713490;stop-opacity:1"/><stop offset="0.46" style="stop-color:#713490;stop-opacity:1"/><stop offset="0.9" style="stop-color:#4b97ff;stop-opacity:0"/><stop offset="1" style="stop-color:#4b97ff;stop-opacity:0"/></linearGradient><linearGradient id="_Linear30" x1="0" y1="0" x2="1" y2="0" gradientUnits="userSpaceOnUse" gradientTransform="matrix(-9.1535,9.75083,-9.75083,-9.1535,77.7375,214.365)"><stop offset="0" style="stop-color:#2ba2ff;stop-opacity:1"/><stop offset="0.4" style="stop-color:#51baff;stop-opacity:1"/><stop offset="1" style="stop-color:#447aff;stop-opacity:1"/></linearGradient><linearGradient id="_Linear31" x1="0" y1="0" x2="1" y2="0" gradientUnits="userSpaceOnUse" gradientTransform="matrix(2.23175,2.19333,-2.19333,2.23175,62.7443,203.926)"><stop offset="0" style="stop-color:#713490;stop-opacity:1"/><stop offset="0.27" style="stop-color:#713490;stop-opacity:1"/><stop offset="0.9" style="stop-color:#4b97ff;stop-opacity:0"/><stop offset="1" style="stop-color:#4b97ff;stop-opacity:0"/></linearGradient><linearGradient id="_Linear32" x1="0" y1="0" x2="1" y2="0" gradientUnits="userSpaceOnUse" gradientTransform="matrix(-8.98417,8.985,-8.985,-8.98417,207.293,84.505)"><stop offset="0" style="stop-color:#53f1ff;stop-opacity:1"/><stop offset="0.34" style="stop-color:#67f2ff;stop-opacity:1"/><stop offset="0.91" style="stop-color:#42afff;stop-opacity:1"/><stop offset="1" style="stop-color:#42afff;stop-opacity:1"/></linearGradient><linearGradient id="_Linear33" x1="0" y1="0" x2="1" y2="0" gradientUnits="userSpaceOnUse" gradientTransform="matrix(-2.73,3.48083,-3.48083,-2.73,201.268,90.755)"><stop offset="0" style="stop-color:#4bbfff;stop-opacity:0"/><stop offset="1" style="stop-color:#6491ce;stop-opacity:1"/></linearGradient><linearGradient id="_Linear34" x1="0" y1="0" x2="1" y2="0" gradientUnits="userSpaceOnUse" gradientTransform="matrix(3.385,3.25525,-3.25525,3.385,191.213,72.2656)"><stop offset="0" style="stop-color:#713490;stop-opacity:1"/><stop offset="0.46" style="stop-color:#713490;stop-opacity:1"/><stop offset="1" style="stop-color:#4fc5ff;stop-opacity:0"/></linearGradient><linearGradient id="_Linear35" x1="0" y1="0" x2="1" y2="0" gradientUnits="userSpaceOnUse" gradientTransform="matrix(62.1403,-104.173,104.173,62.1403,26.2581,180.925)"><stop offset="0" style="stop-color:#fa2e8b;stop-opacity:1"/><stop offset="1" style="stop-color:#e91865;stop-opacity:1"/></linearGradient><radialGradient id="_Radial36" cx="0" cy="0" r="1" gradientUnits="userSpaceOnUse" gradientTransform="matrix(59.4055,38.0208,-11.4424,17.8782,177.576,109.375)"><stop offset="0" style="stop-color:#953853;stop-opacity:1"/><stop offset="0.26" style="stop-color:#953853;stop-opacity:1"/><stop offset="1" style="stop-color:#da2562;stop-opacity:0"/></radialGradient><filter id="_Effect37" filterUnits="userSpaceOnUse" x="18.8843" y="90.5489" width="171.669" height="99.779"><feGaussianBlur in="SourceGraphic" stdDeviation="1.25"/></filter><radialGradient id="_Radial38" cx="0" cy="0" r="1" gradientUnits="userSpaceOnUse" gradientTransform="matrix(-112.47,-42.9683,17.7426,-46.4413,180.408,162.998)"><stop offset="0" style="stop-color:#fb527b;stop-opacity:1"/><stop offset="0.14" style="stop-color:#fb527b;stop-opacity:1"/><stop offset="1" style="stop-color:#fb527b;stop-opacity:0"/></radialGradient><linearGradient id="_Linear39" x1="0" y1="0" x2="1" y2="0" gradientUnits="userSpaceOnUse" gradientTransform="matrix(-90.625,80.208,-80.208,-90.625,250.002,81.2495)"><stop offset="0" style="stop-color:#4fd4ff;stop-opacity:1"/><stop offset="0.51" style="stop-color:#4fd4ff;stop-opacity:1"/><stop offset="1" style="stop-color:#3d97ff;stop-opacity:1"/></linearGradient><filter id="_Effect40" filterUnits="userSpaceOnUse" x="83.9454" y="75.4387" width="170.266" height="85.5575"><feGaussianBlur in="SourceGraphic" stdDeviation="1.25"/></filter><linearGradient id="_Linear41" x1="0" y1="0" x2="1" y2="0" gradientUnits="userSpaceOnUse" gradientTransform="matrix(-86.6667,61.514,-61.514,-86.6667,249.041,80.9352)"><stop offset="0" style="stop-color:#71f6ff;stop-opacity:1"/><stop offset="1" style="stop-color:#71f6ff;stop-opacity:0"/></linearGradient><filter id="_Effect42" filterUnits="userSpaceOnUse" x="83.9454" y="75.4387" width="170.266" height="85.5575"><feGaussianBlur in="SourceGraphic" stdDeviation="1.25"/></filter><linearGradient id="_Linear43" x1="0" y1="0" x2="1" y2="0" gradientUnits="userSpaceOnUse" gradientTransform="matrix(4.92167,-37.7283,37.7283,4.92167,100.04,153.142)"><stop offset="0" style="stop-color:#56b5ff;stop-opacity:1"/><stop offset="1" style="stop-color:#56b5ff;stop-opacity:0"/></linearGradient></defs></svg>